# AST/ASF file generated using VICON BodyLanguage
# -----------------------------------------------
:version 1.10
:name VICON
:units
  mass 1.0
  length 0.45
  angle deg
:documentation
   .ast/.asf automatically generated from VICON data using
   VICON BodyBuilder and BodyLanguage model FoxedUp or BRILLIANT.MOD
:root
   order TX TY TZ RX RY RZ
   axis XYZ
   position 0 0 0  
   orientation 0 0 0 
:bonedata
  begin
     id 1 
     name lhipjoint
     direction 0.521689 -0.742065 0.420928 
     length 2.47002 
     axis 0 0 0  XYZ
  end
  begin
     id 2 
     name lfemur
     direction 0.34202 -0.939693 0  
     length 7.24654  
     axis 0 0 20  XYZ
    dof rx ry rz
    limits (-160.0 20.0)
           (-70.0 70.0)
           (-60.0 70.0)
  end
  begin
     id 3 
     name ltibia
     direction 0.34202 -0.939693 0   
     length 8.04849   
     axis 0 0 20   XYZ
    dof rx
    limits (-10.0 170.0)
  end
  begin
     id 4 
     name lfoot
     direction 0.0745411 -0.2048 0.975961   
     length 1.72367   
     axis -90 7.62852e-016 20   XYZ
    dof rx rz
    limits (-45.0 90.0)
           (-70.0 20.0)
  end
  begin
     id 5 
     name ltoes
     direction 1.53556e-011 -4.21901e-011 1   
     length 0.87311   
     axis -90 7.62852e-016 20   XYZ
    dof rx
    limits (-90.0 20.0)
  end
  begin
     id 6 
     name rhipjoint
     direction -0.52849 -0.738415 0.418857   
     length 2.48223  
     axis 0 0 0  XYZ 
  end
  begin
     id 7 
     name rfemur
     direction -0.34202 -0.939693 0   
     length 7.15571   
     axis 0 0 -20   XYZ
    dof rx ry rz
    limits (-160.0 20.0)
           (-70.0 70.0)
           (-70.0 60.0)
  end
  begin
     id 8 
     name rtibia
     direction -0.34202 -0.939693 0   
     length 7.81659   
     axis 0 0 -20   XYZ
    dof rx
    limits (-10.0 170.0)
 end
 begin
     id 9 
     name rfoot
     direction -0.0917348 -0.252039 0.963359   
     length 1.84382  
     axis -90 -7.62852e-016 -20   XYZ
    dof rx rz
    limits (-45.0 90.0)
           (-20.0 70.0)
  end
  begin
     id 10 
     name rtoes
     direction -1.53551e-011 -4.21879e-011 1   
     length 0.927771   
     axis -90 -7.62852e-016 -20   XYZ
    dof rx
    limits (-90.0 20.0)
  end
  begin
     id 11 
     name lowerback
     direction 0.00583058 0.999822 0.0179296   
     length 2.1429   
     axis 0 0 0   XYZ
    dof rx ry rz
    limits (-20.0 45.0)
           (-30.0 30.0)
           (-30.0 30.0)
  end
  begin
     id 12 
     name upperback
     direction -0.0137999 0.999752 -0.0175071   
     length 2.14252   
     axis 0 0 0   XYZ
    dof rx ry rz
    limits (-20.0 45.0)
           (-30.0 30.0)
           (-30.0 30.0)
  end
  begin
     id 13 
     name thorax
     direction -0.0158036 0.99955 -0.0254909   
     length 2.1383   
     axis 0 0 0   XYZ
    dof rx ry rz
    limits (-20.0 45.0)
           (-30.0 30.0)
           (-30.0 30.0)
  end
  begin
     id 14 
     name lowerneck
     direction -0.0101179 0.999403 -0.0330262   
     length 1.65808   
     axis 0 0 0   XYZ
    dof rx ry rz
    limits (-20.0 45.0)
           (-30.0 30.0)
           (-30.0 30.0)
  end
  begin
     id 15 
     name upperneck
     direction 0.0497734 0.995978 -0.074501   
     length 1.5897   
     axis 0 0 0   XYZ
    dof rx ry rz
    limits (-20.0 45.0)
           (-30.0 30.0)
           (-30.0 30.0)
  end
  begin
     id 16
     name head
     direction 0.0189524 0.999519 -0.0245438  
     length 1.74024  
     axis 0 0 0   XYZ
    dof rx ry rz
    limits (-20.0 45.0)
           (-30.0 30.0)
           (-30.0 30.0)
  end
  begin
     id 17 
     name lclavicle
     direction 0.945604 0.324422 0.0241537  
     length 3.59089  
     axis 0 0 0   XYZ
    dof ry rz
    limits (-20.0 10.0)
           (0.0 20.0)
  end
  begin
     id 18 
     name lhumerus
     direction 1 -4.48964e-011 -2.63524e-027   
     length 5.2391   
     axis 180 -30 -90   XYZ
    dof rx ry rz
    limits (-60.0 90.0)
           (-90.0 90.0)
           (-90.0 90.0)
  end
  begin
     id 19
     name lradius
     direction 1 -4.48969e-011 3.86978e-028   
     length 3.31467   
     axis 180 -30 -90   XYZ
    dof rx
    limits (-10.0 170.0)
  end
  begin
     id 20
     name lwrist
     direction 1 -4.48963e-011 7.20928e-028   
     length 1.65734   
     axis -5.52449e-016 90 90   XYZ
    dof ry
    limits (-180.0 0.0)
 end
  begin
     id 21 
     name lhand
     direction 1 -4.48964e-011 1.44186e-027   
     length 0.9659   
     axis -9.20027e-016 90 90   XYZ
    dof rx rz
    limits (-90.0 90.0)
           (-45.0 45.0)
  end
  begin
     id 22 
     name lfingers
     direction 1 -4.48965e-011 2.88371e-027   
     length 0.778733   
     axis -1.84005e-015 90 90   XYZ
    dof rx
    limits (0.0 90.0)
  end
  begin
     id 23
     name lthumb
     direction 0.707107 -6.34931e-011 0.707107   
     length 1.11811   
     axis -90 45 2.85299e-015   XYZ
    dof rx rz
    limits (-45.0 45.0)
           (-45.0 45.0)
  end
  begin
     id 24 
     name rclavicle
     direction -0.923762 0.370785 0.0958234   
     length 3.54196  
     axis 0 0 0   XYZ 
    dof ry rz
    limits (-10.0 20.0)
           (-20.0 0.0)
  end
  begin
     id 25 
     name rhumerus
     direction -1 -4.48966e-011 1.18702e-017  
     length 5.30252   
     axis 180 30 90   XYZ
    dof rx ry rz
    limits (-90.0 60.0)
           (-90.0 90.0)
           (-90.0 90.0)
  end
  begin
     id 26 
     name rradius
     direction -1 -4.48966e-011 4.46736e-027   
     length 3.67875   
     axis 180 30 90   XYZ
    dof rx
    limits (-10.0 170.0)
  end
  begin
     id 27 
     name rwrist
     direction -1 -4.48966e-011 7.20928e-028   
     length 1.83937   
     axis -5.52449e-016 -90 -90   XYZ
    dof ry
    limits (-180.0 0.0)
  end
  begin
     id 28
     name rhand
     direction -1 -4.48973e-011 1.44186e-027   
     length 0.594811   
     axis -9.20027e-016 -90 -90   XYZ
    dof rx rz
    limits (-90.0 90.0)
           (-45.0 45.0)
  end
  begin
     id 29
     name rfingers
     direction -1 -4.48963e-011 2.88371e-027   
     length 0.479552   
     axis -1.84005e-015 -90 -90   XYZ
    dof rx
    limits (0.0 90.0)
  end
  begin
     id 30
     name rthumb
     direction -0.707107 -6.34932e-011 0.707107   
     length 0.688544   
     axis -90 -45 -2.85299e-015   XYZ
    dof rx rz
    limits (-45.0 45.0)
           (-45.0 45.0)
  end
:hierarchy
  begin
    root lhipjoint rhipjoint lowerback
    lhipjoint lfemur
    lfemur ltibia
    ltibia lfoot
    lfoot ltoes
    rhipjoint rfemur
    rfemur rtibia
    rtibia rfoot
    rfoot rtoes
    lowerback upperback
    upperback thorax
    thorax lowerneck lclavicle rclavicle
    lowerneck upperneck
    upperneck head
    lclavicle lhumerus
    lhumerus lradius
    lradius lwrist
    lwrist lhand lthumb
    lhand lfingers
    rclavicle rhumerus
    rhumerus rradius
    rradius rwrist
    rwrist rhand rthumb
    rhand rfingers
  end

#!OML:ASF E:\acrobat2\Project_11_07_03\Capture day 1\Session 1\Acrobat.ASF
:FULLY-SPECIFIED
:DEGREES
196
root 6.00475 18.0208 -25.3939 -157.85 86.4243 -160.786
lowerback -7.75033 -1.48881 -3.19047
upperback 1.78185 -1.64323 -0.309137
thorax 6.30059 -0.920005 1.25389
lowerneck 10.6798 -17.2039 -11.2391
upperneck -3.65779 -23.7176 18.8046
head 0.860985 -12.3477 7.21327
rclavicle 4.29872e-015 4.77083e-015
rhumerus -37.7117 0.238511 -81.8439
rradius 28.2144
rwrist -0.174526
rhand -6.36215 -39.7727
rfingers 7.12502
rthumb 19.4842 -68.8164
lclavicle 4.29872e-015 4.77083e-015
lhumerus -31.8806 -4.01953 82.392
lradius 22.8268
lwrist 8.85171
lhand -8.75502 -11.5462
lfingers 7.12502
lthumb 17.1822 17.7141
rfemur 6.56975 13.3114 12.8005
rtibia -1.20327
rfoot -36.0889 -35.5661
rtoes 19.2773
lfemur 4.72936 -5.72059 -8.63241
ltibia 2.07402
lfoot -17.7558 0.122225
ltoes 32.7015
197
root 6.00448 18.0219 -25.3947 -158.642 86.4665 -161.574
lowerback -7.75869 -1.46719 -3.25428
upperback 1.7935 -1.60506 -0.341053
thorax 6.31694 -0.903132 1.26105
lowerneck 10.6802 -17.2274 -11.1648
upperneck -3.68657 -23.7352 18.8036
head 0.846286 -12.3576 7.20494
rclavicle -1.16786e-014 7.95139e-016
rhumerus -37.729 0.0633641 -81.8027
rradius 28.241
rwrist -0.0546027
rhand -6.35496 -39.6989
rfingers 7.12502
rthumb 19.4911 -68.7419
lclavicle -1.16786e-014 7.95139e-016
lhumerus -31.8519 -3.97197 82.3402
lradius 22.8213
lwrist 8.80285
lhand -8.59938 -11.5378
lfingers 7.12502
lthumb 17.332 17.7094
rfemur 6.55448 13.2237 12.6879
rtibia -1.18168
rfoot -36.0521 -35.4393
rtoes 19.5364
lfemur 4.73059 -5.61805 -8.69786
ltibia 2.09759
lfoot -17.7072 -0.0529568
ltoes 33.3519
198
root 6.00395 18.0217 -25.3964 -158.216 86.4406 -161.141
lowerback -7.74162 -1.48757 -3.24738
upperback 1.78776 -1.63624 -0.305155
thorax 6.30349 -0.918863 1.29102
lowerneck 10.6807 -17.2184 -11.127
upperneck -3.70548 -23.717 18.6779
head 0.81734 -12.3463 7.16929
rclavicle 1.20513e-014 -7.95139e-016
rhumerus -37.741 0.117158 -81.7866
rradius 28.2476
rwrist -0.0511877
rhand -6.43614 -39.6659
rfingers 7.12502
rthumb 19.413 -68.7168
lclavicle 1.20513e-014 -7.95139e-016
lhumerus -31.8792 -3.88165 82.38
lradius 22.8122
lwrist 8.8439
lhand -8.61497 -11.4807
lfingers 7.12502
lthumb 17.317 17.7678
rfemur 6.53073 12.9636 12.6727
rtibia -1.18325
rfoot -35.5681 -35.4954
rtoes 18.7325
lfemur 4.71511 -5.51166 -8.64305
ltibia 2.13756
lfoot -17.664 -0.298185
ltoes 34.0852
199
root 6.00492 18.0175 -25.3977 -158.944 86.2312 -161.99
lowerback -7.86932 -1.56715 -3.24678
upperback 1.7531 -1.74005 -0.276712
thorax 6.34584 -0.970552 1.30385
lowerneck 10.7215 -17.1835 -11.1896
upperneck -3.72266 -23.6799 18.6574
head 0.80509 -12.3292 7.17913
rclavicle 1.51076e-014 1.70955e-014
rhumerus -37.784 0.18377 -81.7819
rradius 28.2734
rwrist -0.0915394
rhand -6.50595 -39.6417
rfingers 7.12502
rthumb 19.3459 -68.6994
lclavicle 1.51076e-014 1.70955e-014
lhumerus -31.9157 -4.03592 82.5195
lradius 22.825
lwrist 9.07801
lhand -8.65498 -11.3404
lfingers 7.12502
lthumb 17.2785 17.9115
rfemur 6.47493 12.7496 12.6577
rtibia -1.26146
rfoot -35.3938 -35.6787
rtoes 18.1079
lfemur 4.48833 -5.5208 -8.56586
ltibia 2.21289
lfoot -17.5122 -0.424158
ltoes 34.1368
200
root 6.00557 18.0136 -25.3993 -159.218 86.0232 -162.369
lowerback -8.00467 -1.60188 -3.14916
upperback 1.74631 -1.78869 -0.315989
thorax 6.41372 -0.990462 1.19801
lowerneck 10.7628 -17.1816 -11.1858
upperneck -3.73106 -23.6759 18.7902
head 0.81216 -12.3326 7.22027
rclavicle -5.04416e-015 -3.18055e-015
rhumerus -37.78 0.138494 -81.844
rradius 28.2776
rwrist -0.207121
rhand -6.56633 -39.6524
rfingers 7.12502
rthumb 19.2879 -68.7159
lclavicle -5.04416e-015 -3.18055e-015
lhumerus -31.8784 -4.26895 82.5485
lradius 22.8196
lwrist 9.16867
lhand -8.73615 -11.2528
lfingers 7.12502
lthumb 17.2004 18.006
rfemur 6.47159 12.8123 12.7121
rtibia -1.32625
rfoot -35.9436 -35.5473
rtoes 18.9258
lfemur 4.27959 -5.53789 -8.47643
ltibia 2.29135
lfoot -17.341 -0.33998
ltoes 33.1371
201
root 6.00314 18.0176 -25.3991 -157.12 86.1665 -160.137
lowerback -7.87568 -1.52598 -3.02108
upperback 1.78926 -1.70439 -0.324415
thorax 6.37688 -0.944256 1.13146
lowerneck 10.7666 -17.1844 -11.1694
upperneck -3.71148 -23.6792 18.822
head 0.819925 -12.3349 7.22627
rclavicle 8.77137e-015 -3.57812e-015
rhumerus -37.6991 0.224178 -81.9173
rradius 28.2086
rwrist -0.355456
rhand -6.66591 -39.6688
rfingers 7.12502
rthumb 19.1921 -68.7418
lclavicle 8.77137e-015 -3.57812e-015
lhumerus -31.8545 -4.33295 82.5359
lradius 22.7899
lwrist 9.19884
lhand -8.93309 -11.3228
lfingers 7.12502
lthumb 17.0108 17.9524
rfemur 6.53166 12.9282 12.8454
rtibia -1.23904
rfoot -36.0299 -35.3147
rtoes 19.3332
lfemur 4.48997 -5.44419 -8.39842
ltibia 2.23856
lfoot -17.362 -0.220764
ltoes 32.9059
202
root 5.99927 18.0257 -25.3955 -154.607 86.5248 -157.396
lowerback -7.61225 -1.451 -3.07616
upperback 1.81888 -1.61266 -0.255599
thorax 6.25729 -0.90205 1.25247
lowerneck 10.7924 -17.1202 -11.315
upperneck -3.67919 -23.62 18.7685
head 0.826611 -12.3036 7.23384
rclavicle 7.03201e-015 -1.98785e-015
rhumerus -37.7033 0.391721 -81.8933
rradius 28.1965
rwrist -0.260822
rhand -6.6932 -39.6638
rfingers 7.12502
rthumb 19.1659 -68.7394
lclavicle 7.03201e-015 -1.98785e-015
lhumerus -31.9698 -4.33654 82.6393
lradius 22.8413
lwrist 9.53674
lhand -9.07661 -11.364
lfingers 7.12502
lthumb 16.8727 17.923
rfemur 6.59967 13.0835 12.9206
rtibia -1.11741
rfoot -35.7268 -35.2243
rtoes 19.1895
lfemur 4.89544 -5.33881 -8.4079
ltibia 2.09482
lfoot -17.5226 -0.20983
ltoes 33.7847
203
root 5.99717 18.0293 -25.3931 -153.283 86.7222 -155.949
lowerback -7.46577 -1.40536 -3.15289
upperback 1.83454 -1.55226 -0.210905
thorax 6.19092 -0.875694 1.35323
lowerneck 10.8171 -17.0987 -11.3685
upperneck -3.68406 -23.6007 18.7044
head 0.816495 -12.2934 7.22677
rclavicle -1.81391e-015 7.95139e-015
rhumerus -37.7678 0.204403 -81.758
rradius 28.2395
rwrist 0.0477029
rhand -6.71042 -39.508
rfingers 7.12502
rthumb 19.1493 -68.5853
lclavicle -1.81391e-015 7.95139e-015
lhumerus -32.0562 -4.41588 82.7617
lradius 22.9004
lwrist 9.8238
lhand -9.16892 -11.2978
lfingers 7.12502
lthumb 16.7838 17.9967
rfemur 6.65745 13.2175 12.95
rtibia -1.1054
rfoot -35.4523 -35.3156
rtoes 18.6721
lfemur 5.11326 -5.22094 -8.40879
ltibia 2.02838
lfoot -17.5567 -0.166196
ltoes 33.5371
204
root 5.99671 18.0292 -25.3937 -153.346 86.7241 -156.004
lowerback -7.45555 -1.36829 -3.14664
upperback 1.84508 -1.50178 -0.237932
thorax 6.19276 -0.850134 1.32813
lowerneck 10.8138 -17.1488 -11.2669
upperneck -3.71392 -23.6502 18.6837
head 0.801195 -12.3188 7.20684
rclavicle 8.74653e-015 7.95139e-016
rhumerus -37.775 -0.0883373 -81.67
rradius 28.2189
rwrist 0.180864
rhand -6.64213 -39.3402
rfingers 7.12502
rthumb 19.215 -68.4109
lclavicle 8.74653e-015 7.95139e-016
lhumerus -32.0283 -4.50016 82.7935
lradius 22.8924
lwrist 9.78361
lhand -9.18612 -11.26
lfingers 7.12502
lthumb 16.7673 18.036
rfemur 6.69702 13.3676 12.9816
rtibia -1.21063
rfoot -35.0177 -35.9272
rtoes 16.7152
lfemur 5.10376 -5.05322 -8.3823
ltibia 2.0663
lfoot -17.4132 -0.198274
ltoes 32.9719
205
root 5.99578 18.0296 -25.3944 -153.977 86.7364 -156.638
lowerback -7.45049 -1.36562 -3.1873
upperback 1.84533 -1.49346 -0.251431
thorax 6.19057 -0.847188 1.33802
lowerneck 10.796 -17.1578 -11.287
upperneck -3.70494 -23.6649 18.728
head 0.816856 -12.326 7.21738
rclavicle 4.00054e-015 9.54166e-015
rhumerus -37.7668 0.0521276 -81.7444
rradius 28.2007
rwrist 0.130539
rhand -6.54869 -39.4446
rfingers 7.12502
rthumb 19.3048 -68.5064
lclavicle 4.00054e-015 9.54166e-015
lhumerus -32.0257 -4.53704 82.827
lradius 22.8915
lwrist 9.76898
lhand -9.18662 -11.2858
lfingers 7.12502
lthumb 16.7668 18.0102
rfemur 6.73629 13.5894 13.0068
rtibia -1.18448
rfoot -35.8681 -35.4462
rtoes 18.6554
lfemur 5.07428 -4.92487 -8.4138
ltibia 2.10252
lfoot -17.3201 -0.275154
ltoes 32.745
